<?xml version="1.0" standalone="no"?>
<!DOCTYPE svg PUBLIC "-//W3C//DTD SVG 20010904//EN"
 "http://www.w3.org/TR/2001/REC-SVG-20010904/DTD/svg10.dtd">
<svg version="1.0" xmlns="http://www.w3.org/2000/svg"
 width="512.000000pt" height="512.000000pt" viewBox="0 0 512.000000 512.000000"
 preserveAspectRatio="xMidYMid meet">
<metadata>
Created by potrace 1.11, written by Peter Selinger 2001-2013
</metadata>
<g transform="translate(0.000000,512.000000) scale(0.100000,-0.100000)"
fill="#000000" stroke="none">
<path d="M710 4975 c-153 -31 -255 -88 -370 -204 -67 -67 -95 -105 -128 -171
-84 -169 -77 14 -77 -2045 0 -1744 1 -1833 18 -1895 72 -254 269 -447 527
-517 61 -17 172 -18 1885 -18 2044 0 1861 -7 2030 75 143 69 255 181 325 325
81 166 75 -3 75 2035 l0 1815 -23 78 c-73 253 -255 437 -507 513 -57 18 -152
19 -1875 20 -1482 2 -1827 0 -1880 -11z m2035 -808 c93 -188 171 -345 173
-349 2 -5 -154 -8 -347 -8 -193 0 -351 2 -351 5 0 10 345 695 350 694 3 0 81
-154 175 -342z m-1443 -349 c107 -50 179 -148 201 -272 20 -120 -38 -264 -136
-336 -72 -53 -140 -72 -237 -68 -73 3 -94 9 -148 38 -187 100 -246 331 -130
512 37 59 92 104 166 135 80 33 202 30 284 -9z m2506 -38 c29 -39 57 -68 62
-65 5 3 30 35 56 70 l48 65 118 0 119 0 -106 -141 -106 -140 100 -134 c56 -74
101 -139 101 -145 0 -6 -40 -10 -105 -10 l-104 0 -61 80 c-33 44 -63 80 -65
80 -2 0 -32 -36 -65 -80 l-61 -80 -104 0 c-65 0 -105 4 -105 10 0 6 45 71 101
145 l100 134 -106 140 -106 141 118 0 119 0 52 -70z m-586 -721 c430 -332 631
-493 639 -512 10 -24 9 -32 -8 -55 l-20 -27 -1262 -3 c-1250 -2 -1261 -2
-1281 18 -27 27 -26 71 3 97 25 23 1147 891 1217 942 26 19 53 31 65 28 12 -2
303 -221 647 -488z m-1137 -714 c45 -44 29 -116 -31 -141 l-34 -14 2 -348 3
-347 43 -3 c42 -3 42 -3 42 -43 l0 -39 -257 2 -258 3 0 35 c0 34 1 35 43 38
l42 3 0 355 c0 342 -1 354 -19 354 -25 0 -71 55 -71 85 0 13 12 37 26 54 l26
31 209 0 c210 0 210 0 234 -25z m719 -6 c14 -17 26 -41 26 -54 0 -30 -46 -85
-71 -85 -18 0 -19 -12 -19 -354 l0 -355 43 -3 c41 -3 42 -4 42 -38 l0 -35
-257 -3 -258 -2 0 39 c0 40 0 40 43 43 l42 3 3 347 2 348 -34 14 c-60 25 -76
97 -31 141 24 25 24 25 234 25 l209 0 26 -31z m711 6 c45 -44 29 -116 -31
-141 l-34 -14 2 -348 3 -347 43 -3 c42 -3 42 -3 42 -43 l0 -39 -257 2 -258 3
0 35 c0 34 1 35 43 38 l42 3 0 355 c0 342 -1 354 -19 354 -25 0 -71 55 -71 85
0 13 12 37 26 54 l26 31 209 0 c210 0 210 0 234 -25z m-2365 -415 l0 -360
-360 0 -360 0 0 360 0 360 360 0 360 0 0 -360z m3459 173 l89 -178 -89 -178
-89 -177 -178 2 -177 3 -90 178 -90 178 88 174 89 175 179 0 179 0 89 -177z
m-959 -802 c5 -11 10 -45 10 -75 l0 -56 93 0 c59 0 97 -4 105 -12 7 -7 12 -39
12 -75 l0 -63 -1305 0 -1305 0 0 59 c0 84 9 91 126 91 l94 0 0 63 c0 36 5 68
12 75 9 9 263 12 1080 12 1045 0 1068 0 1078 -19z"/>
<path d="M2301 2972 l-253 -197 261 -3 c143 -1 377 -1 520 0 l259 3 -251 194
c-138 107 -258 195 -267 197 -8 2 -129 -85 -269 -194z"/>
</g>
</svg>
